<?xml version="1.0" standalone="no"?>
<!DOCTYPE svg PUBLIC "-//W3C//DTD SVG 20010904//EN"
 "http://www.w3.org/TR/2001/REC-SVG-20010904/DTD/svg10.dtd">
<svg version="1.0" xmlns="http://www.w3.org/2000/svg"
 width="2000.000000pt" height="2000.000000pt" viewBox="0 0 2000.000000 2000.000000"
 preserveAspectRatio="xMidYMid meet">
<metadata>
Created by potrace 1.14, written by Peter Selinger 2001-2017
</metadata>
<g transform="translate(0.000000,2000.000000) scale(0.100000,-0.100000)"
fill="#000000" stroke="none">
<path d="M5877 16944 c-1 -1 -49 -5 -107 -8 -241 -14 -467 -68 -715 -171 -515
-213 -959 -650 -1187 -1170 -52 -117 -113 -306 -136 -420 -29 -141 -31 -152
-40 -230 -9 -92 -9 -8941 1 -9025 4 -36 10 -85 13 -110 20 -169 118 -479 205
-653 57 -112 187 -322 233 -374 6 -7 16 -18 21 -25 349 -454 934 -781 1510
-845 94 -11 8548 -10 8650 0 43 5 82 10 86 12 3 3 25 7 47 10 35 4 66 10 142
29 196 49 375 121 600 242 19 11 37 21 40 24 3 3 45 32 95 65 239 160 463 390
628 647 49 76 132 231 180 338 41 90 116 335 132 430 3 19 10 60 16 90 5 30
13 91 17 135 9 107 9 8856 -1 8966 -37 434 -217 871 -499 1215 -318 388 -752
658 -1248 775 -36 8 -55 12 -130 24 -25 4 -53 9 -64 11 -78 14 -721 17 -4364
18 -2268 1 -4124 0 -4125 0z"/>
</g>
</svg>
